<?xml version="1.0" encoding="utf-8"?>
<svg fill="#000000" width="800px" height="800px" viewBox="0 0 32 32" version="1.1" xmlns="http://www.w3.org/2000/svg">
  <defs>
    <linearGradient id="purpleBlueGradient" x1="0%" y1="0%" x2="70%" y2="100%">
      <stop offset="0.3" style="stop-color:#C488EC;stop-opacity:1"/>
      <stop offset="1" style="stop-color:#6791C9;stop-opacity:1"/>
    </linearGradient>
  </defs>
  <title>pause</title>
  <path fill="url(#purpleBlueGradient)" d="M 0.808 26.849 C 0.808 27.593 1.098 28.224 1.676 28.74 C 2.256 29.255 2.979 29.527 3.848 29.556 L 9.924 29.556 C 10.759 29.556 11.483 29.284 12.094 28.74 C 12.705 28.196 12.994 27.565 12.962 26.849 L 12.962 5.154 C 12.962 4.409 12.672 3.765 12.094 3.221 C 11.516 2.677 10.793 2.419 9.924 2.447 L 3.848 2.447 C 3.012 2.447 2.288 2.706 1.676 3.221 C 1.066 3.736 0.777 4.381 0.808 5.154 L 0.808 26.849 Z M 19.039 26.849 C 19.039 27.593 19.344 28.224 19.954 28.74 C 20.565 29.255 21.273 29.527 22.078 29.556 L 28.153 29.556 C 28.989 29.556 29.714 29.284 30.325 28.74 C 30.934 28.196 31.224 27.565 31.192 26.849 L 31.192 5.154 C 31.192 4.409 30.903 3.765 30.325 3.221 C 29.745 2.677 29.023 2.419 28.153 2.447 L 22.078 2.447 C 21.241 2.447 20.535 2.706 19.954 3.221 C 19.376 3.736 19.07 4.381 19.039 5.154 L 19.039 26.849 Z" style=""/>
</svg>